<?xml version="1.0" encoding="UTF-8"?>
<svg id="Ebene_1" data-name="Ebene 1" xmlns="http://www.w3.org/2000/svg" viewBox="0 0 950 950">
  <defs>
    <style>
      .cls-1 {
        fill: #004aad;
        fill-rule: evenodd;
      }
    </style>
  </defs>
  <path d="M471.6,872.17c-54.21,0-106.8-10.62-156.31-31.56-47.82-20.22-90.76-49.18-127.64-86.06-36.88-36.88-65.83-79.82-86.06-127.64-20.94-49.51-31.56-102.1-31.56-156.31s10.62-106.8,31.56-156.31c20.22-47.82,49.18-90.76,86.06-127.64,36.88-36.88,79.82-65.83,127.64-86.06,49.51-20.94,102.1-31.56,156.31-31.56s106.8,10.62,156.31,31.56c47.82,20.22,90.76,49.18,127.64,86.06,36.88,36.88,65.83,79.82,86.06,127.64,20.94,49.51,31.56,102.1,31.56,156.31s-10.62,106.8-31.56,156.31c-20.22,47.82-49.18,90.76-86.06,127.64-36.88,36.88-79.82,65.83-127.64,86.06-49.51,20.94-102.1,31.56-156.31,31.56ZM471.6,77.05c-217.01,0-393.56,176.55-393.56,393.56s176.55,393.56,393.56,393.56,393.56-176.55,393.56-393.56S688.6,77.05,471.6,77.05Z"/>
  <g>
    <path d="M306.71,545.89c-11.03-23.53-17.21-49.78-17.21-77.44,0-100.93,82.11-183.05,183.04-183.05,87.86,0,161.45,62.23,179.04,144.93l8.16-.13c-17.77-87.08-94.95-152.8-187.2-152.8-105.34,0-191.04,85.7-191.04,191.05,0,28.15,6.12,54.89,17.1,78.97l8.11-1.53Z"/>
    <path d="M653.59,495.47c-13.1,88.16-89.3,156.02-181.05,156.02-50.67,0-96.59-20.7-129.76-54.07l-7.15,4.12c34.73,35.72,83.27,57.96,136.92,57.96,96.78,0,176.97-72.33,189.37-165.77l-8.32,1.75Z"/>
  </g>
  <path class="cls-1" d="M425.68,343.88c-2.49,1.21-3.34,3.71-2.03,5.95,1.99,3.39,5.39,3.68,7.68.66,1.68-2.22,1.59-4.17-.28-5.97-1.68-1.61-3.02-1.77-5.37-.63M643.6,443.26c-.46,1.04,1.02,1.95,1.7,1.05.57-.75-.01-1.92-.9-1.79-.28.04-.64.37-.8.74M644.65,451.22c-1.47.84-1.79,1.56-2.48,5.59-1.08,6.35-.21,7.35,5.17,5.96,6.49-1.68,7.14-2.71,4.48-7.12-2.85-4.76-4.65-5.87-7.17-4.43M490.76,486.07c-6.49,4.96-7.23,6.56-2.46,5.32,3.48-.89,7.66.02,8.54,1.86.3.63,1,1.3,1.57,1.49,1.52.51,7.91-.64,8.76-1.59.41-.44,2.01-.96,3.55-1.14s4.81-.93,7.26-1.64l4.46-1.31,1.59,1.41c1.46,1.29,1.89,1.35,5.07.78,2.08-.37,3.76-1,4.17-1.54,1.07-1.4-3.65-4.8-6.77-4.88-5.39-.14-13.4-.98-20.45-2.15-4.15-.69-8.02-1.18-8.6-1.09-.58.08-3.6,2.1-6.71,4.48M648.46,472.55c-.15.19-3.15,1.12-6.69,2.06-3.53.95-7.08,2.08-7.88,2.52-.8.44-2.19.76-3.07.71-2.11-.12-4.15,1.74-2.71,2.47.52.26,1.69.21,2.6-.12.91-.33,2.85-.84,4.29-1.14,5.1-1.04,18.2-4.71,19.11-5.36.51-.37.87-1.04.81-1.5-.08-.63-.87-.73-3.16-.42-1.67.24-3.16.58-3.3.77M368.51,545.36c-.42.96,1.52,9.34,2.59,11.15,1.94,3.29,2.59,2.19,1.52-2.55-1.52-6.75-3.29-10.45-4.11-8.6M279.08,568.83c.38,1.14,1.23,2.79,1.88,3.67l1.19,1.6-.24-3.07c-.26-3.16-1.14-4.6-2.67-4.39-.67.1-.7.55-.15,2.19M488.49,539.89c.05.32.45.52.9.46.46-.06.95-.39,1.1-.73.15-.34-.26-.55-.91-.46-.64.09-1.14.42-1.09.73M469.59,543.47c-.77,1.02-.06,1.97,1.34,1.78,1.09-.15,1.38-.46,1.14-1.18-.34-1.01-1.88-1.38-2.48-.6M327.78,566.6c-.12.5,0,.87.27.84.27-.03.75-.5,1.08-1.02.48-.78.43-.93-.28-.84-.48.07-.96.53-1.07,1.02M448.43,551.28c-.59.36-3.07.95-5.5,1.31-5.99.89-6.61,1.69-5.8,7.5.89,6.42,1.12,6.51,10.61,3.89,6.81-1.88,7.25-2.37,6.81-7.66-.28-3.45-.51-4.11-1.7-5.01-1.44-1.09-2.66-1.1-4.43-.03M282.08,575.68c.14.98,2.67,7.52,4.04,10.4.64,1.35,1.46,3.33,1.82,4.4.36,1.07,1.05,2.42,1.53,2.99s1.27,2.48,1.74,4.23c.49,1.83,1.29,3.46,1.88,3.82.92.57.94.33.23-2.39-.43-1.65-1.15-3.34-1.6-3.75s-1.16-1.92-1.59-3.36c-.42-1.44-1.14-3.35-1.61-4.24-.46-.9-1.4-3.39-2.07-5.54-1.32-4.21-4.76-9.36-4.37-6.56M489.39,549.08c-2.71,1.56-1.67,3.54,1.28,2.45,1.95-.72,2.65-2.24,1.31-2.85-1.03-.46-1.09-.46-2.59.41M427.74,558.56c-1.18,1.09-1.32,3.02-.26,3.48.89.39,4.39-1.86,4.65-2.99.45-1.95-2.48-2.28-4.4-.49M504.94,304.9c-4.27,2.31-9.28,6.82-12.27,11.03-4.31,6.07-4.6,6.53-5.28,8.38-2.92,7.86-4.09,9.48-12.79,17.7-2.66,2.51-3.21,1.52-1.56-2.79,2.36-6.14,3.39-16.65,1.97-20.17-.66-1.65-2.24-1.61-4.18.08-1.4,1.22-5.52,8.08-5.39,8.98.05.3-.35,1.27-.87,2.17-1.91,3.28-2.16,6.47-1.23,15.78,1.06,10.61.68,12.25-2.12,9.1-.95-1.06-3-2.93-4.56-4.16-2.62-2.04-3.03-2.71-5.18-8.23-2.99-7.73-4.32-9.82-8.45-13.23-4.1-3.39-9.8-5.57-16.52-6.33-7.98-.89-13.43.51-20.43,5.26-8.45,5.73-16.97,22.19-20.55,39.69-1.36,6.66-4.29,24.45-4.36,26.52-.04,1.13-.28,3.12-.53,4.44-1.09,5.63-.78,21.45.62,31.31,1.23,8.65,4.35,18.57,8.22,26.13,2.1,4.11,8.25,12.58,12.18,16.79,6.34,6.78,15.72,13.25,23.92,16.5,10.55,4.18,25.41,6.85,29.22,5.25,1.09-.46,4.96-1.9,8.58-3.21,6.49-2.34,9.48-4.09,8.67-5.07-.23-.28-4.05,0-8.71.66-9.39,1.31-13.94,1.07-23.67-1.22-12.29-2.9-24.69-10.42-33.68-20.44-8.91-9.93-15.53-25.15-17.24-39.59-.13-1.11-.4-3.29-.6-4.87-.65-4.96-.73-13.65-.18-20.06,1.54-18.06,2.81-28.61,3.76-31.31.32-.88.71-2.71.87-4.06.51-4.05,3.72-13.8,6.37-19.38,2.94-6.18,6.81-11.06,11.04-13.92,6.24-4.22,18.66-4.94,26.02-1.5,6.15,2.86,8.78,6.14,10.72,13.38,1.7,6.33,4.58,10.56,8.84,12.96,4.98,2.8,4.8,3.05-2.6,3.62l-6.48.5-3.88,3.47c-5.12,4.56-8.02,8.34-10.05,13.04-2.72,6.29-1.68,6.5,3.29.65,4.69-5.52,6.35-6.41,7.3-3.89,3.01,7.99,3.56,8.48,15.91,14.26,6.82,3.19,22.77,12.16,34.81,19.58,3.37,2.08,6.74,4.13,10.13,6.17,2.39,1.43,7.1,4.45,10.49,6.71,3.38,2.26,8.01,5.28,10.29,6.72,2.28,1.43,9.33,6.08,15.66,10.32,6.33,4.24,14.13,9.43,17.33,11.53,3.63,2.37,5.88,4.22,5.97,4.92.22,1.55-3.41,3.16-9.87,4.36-2.81.52-5.63,1.2-6.27,1.5-1.45.68-18.61,1.4-24.53,1.02-2.42-.15-6.36-.56-8.74-.9-4.17-.6-5.88-.19-4.74,1.15,1.23,1.45,13.04,4.37,21.53,5.33,4.44.5,10.53.43,17.44-.2,9.25-.84,8.67-.74,17.77-3.16,9.07-2.42,8.31-2.5,14.14,1.45,1.84,1.24,13.67,7.21,26.3,13.27,12.63,6.06,24.02,11.53,25.31,12.18,2.85,1.41,3.16,2.79,1.13,5.04-2.42,2.68-5.82,3.38-10.34,2.13-5.07-1.41-12.59-4.66-22.43-9.71-10.2-5.24-9.74-5.05-9.58-3.92.29,2.1,15.32,12.04,25.37,16.79,3.13,1.47,3.77,3.05,1.72,4.19-2.55,1.4-13.28,2.77-17.62,2.26-13.67-1.62-35.9-8.47-47.06-14.49-1.43-.78-4.9-2.62-7.7-4.11-6.27-3.31-6.75-4.4-2.01-4.53,14.36-.39,21.81-1.12,22.28-2.19.59-1.31-1.3-2-5.09-1.86-8.44.32-28.22-.87-39.47-2.37-21.94-2.93-38.64-7.86-51.4-15.16-7.93-4.54-15.28-12.69-19.25-21.34-1.68-3.67-3.68-15.69-3.52-21.26.08-2.9,0-3.11-.97-2.77-1.31.44-2.44,5.5-2.85,12.73-.35,6.28.8,10.99,4.71,19.12,5.76,11.98,18.76,22.15,35.75,27.97,1.42.48,2.94.83,3.39.77,1.36-.19,3.59,1.47,3.36,2.49-.12.51-1.59,1.85-3.27,2.98-4.55,3.06-15.63,12.4-18.15,15.29-1.22,1.4-2.15,2.91-2.1,3.35.15,1.08,2.13.75,3.7-.62,1.37-1.2,12.82-4.11,15.16-3.86,1.67.18,2.55,2.04,1.59,3.32-.39.51-1.52,1.17-2.51,1.45-.99.28-3.63,1.05-5.87,1.72-2.24.66-4.97,1.32-6.08,1.48-2.86.4-5.66,2.22-6.2,4.05-.62,2.08-1.51,1.81-2.89-.87-1.05-2.03-1.08-2.53-.41-6.26.86-4.73.22-5.9-2.01-3.7-2.32,2.29-3.04,4.22-3.6,9.62-.3,2.85-.81,5.14-1.14,5.08-.33-.06-1.09-1.08-1.7-2.26-1.18-2.31-1.16-6.24.03-9.75.62-1.81.24-2.78-1.02-2.6-.42.06-1.79,1.36-3.05,2.9-1.72,2.1-2.48,3.75-3.06,6.69l-.78,3.89-2.84.46c-6.22,1.01-20.28,4.24-24.86,5.71-2.67.86-5.31,1.62-5.88,1.7-1.49.21-2.98-1.13-2.82-2.51.08-.66.17-1.21.21-1.22,5.05-2.1,21.22-6.38,27.48-7.28,3.95-.57,4.58-.82,5.66-2.24,1.42-1.87,1.38-2.96-.12-4.11-.91-.69-1.75-.67-4.95.1-2.12.51-8.87,2.02-15,3.34-22.55,4.89-22.89,5.01-24.42,8.94-.39,1-1.6,3.44-2.7,5.42-1.09,1.98-2.47,5.16-3.05,7.06-1.36,4.44-4.35,6.9-9.2,7.57-1.74.24-3.84.81-4.67,1.26-1.05.58-2.29.75-4.2.56-2.33-.23-3.03-.06-5.19,1.28-2.21,1.38-2.8,1.51-5.18,1.22-2.05-.25-3.31-.09-5.33.7-1.45.57-5.69,1.74-9.42,2.58-3.72.86-7.79,1.81-9.02,2.12-22.96,5.75-43.9,10.01-58.89,11.97-5.72.75-6.46.98-8.1,2.45-3.35,3.02-3.25,3.58,3.61,21.51,8.76,22.87,13.6,33.79,16.37,36.88.83.92,2.22,1.82,3.11,2,1.38.28,2.05-.09,4.92-2.72,10.9-9.98,19.46-17.62,21.07-18.81,1.02-.75,2.45-1.92,3.18-2.62.73-.69,4.18-3.27,7.64-5.73,3.47-2.47,6.86-5.05,7.53-5.73.67-.68,1.43-1.27,1.68-1.31.26-.04,3.19-1.79,6.52-3.88,18.42-11.63,22.69-14.38,23.27-14.98.36-.37,1.87-.67,3.41-.68,2.04-.01,3.6-.44,5.9-1.63,3.56-1.83,9.01-3.32,11.27-3.08,2.06.23,6,2.89,6.18,4.19.08.58-.03,2.47-.24,4.19-1.25,9.98-4.33,19.82-8.66,27.68-3.96,7.19-3.7,8.07,3.18,10.74,17.57,6.79,18.21,6.95,20.29,5.13,2.24-1.96,8.29-22.04,9.69-32.21.86-6.22,1.99-11.05,2.62-11.13.28-.04,1.29.83,2.26,1.93.97,1.1,2.38,2.19,3.12,2.4,2.12.63,17.58-2.66,22.9-4.87,3.52-1.46,6.12-7.07,5.46-11.82-.36-2.58.7-5.82,1.97-6,.89-.12,1.76,1.22,4.88,7.62,7.33,15.02,15.2,26.11,26.38,37.15,8.51,8.41,24.13,19.79,27.7,20.17,1.79.19,3.24-.95,4.8-3.79.71-1.29,3.46-5.41,6.11-9.14,8.67-12.2,9.03-13.69,4.03-16.69-8.65-5.19-18.24-13.16-24.22-20.1-5.85-6.81-14.82-20.77-15.23-23.7-.07-.51.57-1.41,1.41-2.01s1.95-1.86,2.46-2.81c.78-1.46,1.49-1.88,4.49-2.64,1.97-.5,5.85-1.5,8.63-2.23,2.78-.73,7.71-1.97,10.97-2.77,13.53-3.31,16.68-4.16,26.38-7.1,2.44-.73,4.88-1.44,7.33-2.12,5.42-1.5,8.77-3.34,11.52-6.35,3.15-3.44,4.46-3.59,11.48-1.37,3.08.98,9.02,2.39,13.19,3.12,6.61,1.18,8.51,1.28,14.63.74,6.96-.62,7.07-.64,11.12-3.03,2.26-1.33,4.58-3.1,5.17-3.93.73-1.04,1.99-1.77,3.99-2.31,3.38-.93,6.83-3.06,8.28-5.13,1.69-2.4,4.17-8.71,3.97-10.12-.33-2.37,1.4-3.87,5.07-4.38,1.81-.25,5.03-1.09,7.16-1.86,2.13-.77,5.21-1.59,6.83-1.83,3.95-.56,4.47-.92,6.11-4.2,2.01-4.01,5.18-5.84,13.49-7.81,3.63-.86,7.98-1.59,9.68-1.64s5.09-.66,7.55-1.36c2.46-.71,6.76-1.84,9.55-2.51,2.79-.68,7.2-1.93,9.8-2.78s5.66-1.68,6.8-1.85c1.13-.16,2.76-.65,3.63-1.08.87-.44,5.6-1.76,10.52-2.94,4.92-1.18,9.37-2.46,9.9-2.85,1.32-.96,1.53-2.75.8-7.08-.75-4.44-1.94-7.11-3.43-7.66-1.06-.39-13.89,2.19-14.85,2.98-.23.19-5.17,1.52-10.98,2.96-5.81,1.44-11.95,3.05-13.64,3.57-1.69.53-6.34,1.97-10.33,3.21-3.99,1.24-8.09,2.84-9.11,3.57s-3.76,1.76-6.09,2.3c-2.33.53-5.66,1.45-7.41,2.04-2.97,1-3.39,1-6.26-.03-1.69-.6-3.42-1.05-3.84-.99-.42.06-1.38-.4-2.14-1.02-1.87-1.53-8.16-10.35-10.65-14.95-1.13-2.07-2.52-4.17-3.1-4.65-2.4-2.02-8.15-.6-9.55,2.34-.39.82-.68,3.51-.64,5.99.07,4.78-1.65,17.65-2.51,18.78-.71.95-9.9,3.66-15.98,4.71-2.82.5-6.44,1.25-8.06,1.69-3.24.87-1.63,1.4-16.21-5.25-4.03-1.84-9.28-5.28-19.85-12.99-7.91-5.77-16.37-11.75-18.81-13.28-2.44-1.54-5.63-3.71-7.08-4.82-5.18-3.95-36.32-23.54-51.08-32.13-4.19-2.44-8.75-5.14-10.15-6-6.45-3.99-22.87-12.37-26.83-13.71-6.04-2.03-8.4-3.45-10.04-6.04-1.74-2.76-2.54-7.71-1.47-9.14.84-1.11,1.59-1.31,4.79-1.22l2.09.05-2.6,3.62c-2.07,2.88-2.55,4.01-2.35,5.51.21,1.52.49,1.85,1.45,1.72,1.25-.17,2.13-1.24,6.44-7.75,2.48-3.74,2.79-4.01,5.13-4.33,1.37-.19,3.97-.14,5.77.13,3.45.5,7.07-.06,15.83-2.49,4.59-1.27,10.25-4.6,11.87-6.98,1.46-2.15.37-3.59-3.25-4.32-4.42-.88-14.81.91-19.41,3.36-4.06,2.15-7.62,3.24-7.74,2.35-.12-.8.93-2.13,6.44-8.2,3.63-4,4.49-4.66,6.27-4.81,15.94-1.36,22.47-3.86,27.83-10.62,2.06-2.6,2.18-4.14.39-4.8-1.45-.54-11.76.84-14.11,1.88-3.12,1.38-3.56.24-.79-2.11,1.4-1.18,2.73-2.17,2.97-2.21.59-.08,5.37-4.58,8.35-7.86,1.33-1.47,2.94-3.92,3.57-5.45.63-1.53,1.62-3.75,2.21-4.94,1.31-2.67.81-5.6-.93-5.55-.64.02-2.66.84-4.48,1.83"/>
  <g>
    <path d="M170.42,523.15c6.17-1.69,11.86-2.14,17.08-1.34,5.23.8,9.88,2.56,13.93,5.27,4.05,2.71,7.47,6.04,10.25,9.98,2.78,3.95,4.8,8.22,6.07,12.79,1.32,4.8,1.75,9.7,1.29,14.72-.45,5.01-2.03,9.72-4.73,14.14-2.69,4.43-6.77,8.06-12.22,10.89l-5.03-18.27c2.44-2.37,3.92-4.9,4.45-7.59.54-2.68.34-5.76-.61-9.25-1.06-3.84-2.89-6.85-5.47-9.04-2.57-2.19-5.59-3.55-9.06-4.09-3.46-.52-7-.27-10.62.73-6.01,1.64-10.35,4.57-13.02,8.78-2.66,4.23-3.23,9.08-1.72,14.56,1.02,3.7,2.47,6.63,4.34,8.75,1.86,2.13,4.74,3.58,8.63,4.36l-4.19-15.27,15.81-4.36,9.31,33.87c-3.42,1.23-6.89,2.22-10.4,2.96-3.5.75-7.15,1.02-10.97.82-5.46-.34-10.2-1.78-14.21-4.33-4-2.53-7.27-5.74-9.82-9.61-2.55-3.88-4.43-8.03-5.64-12.47-1.27-4.57-1.73-9.26-1.39-14.07.34-4.8,1.54-9.39,3.61-13.78,2.08-4.39,5.11-8.26,9.1-11.61,4-3.33,9.09-5.85,15.24-7.55Z"/>
    <path d="M182.44,657.8c-2.79-4.48-4.57-9.19-5.33-14.14-.77-4.93-.31-9.62,1.4-14.07,1.72-4.46,4.93-8.14,9.62-11.05l42.4-26.33,10.27,16.52-42.03,26.11c-2.6,1.62-3.9,3.77-3.9,6.46-.01,2.68.73,5.2,2.2,7.54.93,1.51,2.08,2.79,3.45,3.85,1.37,1.07,2.89,1.71,4.56,1.91,1.68.21,3.39-.22,5.14-1.32l42.03-26.11,10.16,16.36-42.4,26.33c-4.69,2.91-9.4,4.17-14.13,3.78-4.71-.4-9.11-2.03-13.2-4.9-4.08-2.85-7.49-6.51-10.24-10.94Z"/>
    <path d="M261.23,693.8l-25.61,28.64-14.52-12.99,49.86-55.76,4.55,4.08,4.47,53.24,24.25-27.12,14.52,12.99-49.78,55.68-4.28-3.84-3.47-54.91Z"/>
    <path d="M342.34,753.66c1.99-6.07,4.76-11.05,8.31-14.96,3.57-3.9,7.57-6.82,12-8.77,4.43-1.94,9.05-2.97,13.86-3.08,4.83-.11,9.5.58,14.03,2.05,3.64,1.19,7.12,2.9,10.41,5.12,3.3,2.2,6.15,4.9,8.57,8.09,2.43,3.18,4.17,6.82,5.22,10.94,1.04,4.12,1.12,8.65.23,13.57l-17.77-5.84c-.08-4.06-1.18-7.29-3.3-9.7-2.12-2.41-5.06-4.24-8.83-5.48-3.59-1.17-6.99-1.35-10.2-.53-3.21.83-6.04,2.48-8.48,4.98-2.43,2.48-4.28,5.67-5.56,9.59-1.11,3.36-1.43,6.78-.96,10.26.48,3.48,1.74,6.58,3.78,9.3,2.05,2.71,4.87,4.66,8.46,5.84,3.84,1.27,7.48,1.46,10.9.58,3.42-.9,6.23-3.11,8.43-6.67l17.8,5.84c-2.33,4.87-5.14,8.72-8.43,11.55-3.28,2.83-6.86,4.85-10.75,6.07-3.87,1.24-7.81,1.78-11.81,1.63-4.01-.16-7.9-.85-11.67-2.1-4.52-1.47-8.69-3.7-12.5-6.68-3.81-2.98-6.93-6.56-9.35-10.74-2.43-4.19-3.93-8.9-4.5-14.12-.56-5.23.14-10.81,2.1-16.74Z"/>
    <path d="M450.5,799.05l26.9,1.64-1.07,17.4-46.34-2.85,4.55-74.35,19.44,1.21-3.48,56.95Z"/>
    <path d="M533.53,812.22c-5.18.97-10.21.93-15.11-.13-4.88-1.05-9.08-3.19-12.6-6.41-3.51-3.21-5.77-7.54-6.8-12.97l-9.2-49.05,19.12-3.59,9.12,48.63c.57,3.02,2.09,5.01,4.57,5.99,2.49.96,5.11,1.18,7.84.67,1.73-.32,3.34-.93,4.84-1.82,1.51-.89,2.66-2.08,3.45-3.55.79-1.49.99-3.24.61-5.27l-9.12-48.63,18.96-3.56,9.2,49.05c1.03,5.43.49,10.27-1.61,14.53-2.1,4.26-5.22,7.78-9.36,10.54-4.14,2.75-8.78,4.6-13.92,5.57Z"/>
    <path d="M622.98,723.15c1,2.03,1.52,4.38,1.55,7.04.04,2.67-.43,5.07-1.42,7.21,3.44.06,6.46,1.02,9.1,2.88,2.65,1.85,4.72,4.29,6.22,7.34,1.88,3.83,2.77,7.67,2.65,11.54-.11,3.85-1.28,7.46-3.53,10.82-2.26,3.37-5.67,6.18-10.26,8.43l-32.18,15.83-32.82-66.75,29.49-14.52c4.14-2.03,8.21-2.97,12.2-2.84,4.01.12,7.66,1.28,10.96,3.5,3.31,2.2,6,5.37,8.05,9.52ZM587.2,734.06l5.49,11.21,10.81-5.32c1.63-.8,2.62-1.96,2.97-3.47.34-1.52.21-2.97-.4-4.34-.68-1.5-1.75-2.65-3.2-3.48-1.46-.82-3.08-.8-4.86.08l-10.81,5.32ZM599.64,759.36l5.46,11.1,13.48-6.64c1.65-.8,2.64-1.93,2.94-3.39.32-1.47.22-2.91-.32-4.32-.44-1.03-1.11-1.93-1.99-2.69-.89-.75-1.89-1.21-3.02-1.36-.52,0-1.04.06-1.55.15-.52.1-1.06.28-1.63.55l-13.37,6.59Z"/>
    <path d="M680.82,672.48c4.51-4.73,9.07-7.59,13.67-8.57,4.6-.98,9.03-.31,13.28,2,4.24,2.31,8.04,6.1,11.39,11.33l-21.72,23.26c2.68,1.82,5.32,2.17,7.9,1.07,2.6-1.12,5.01-2.88,7.24-5.28,2.08-2.22,3.91-4.71,5.47-7.47,1.56-2.77,2.71-5.13,3.44-7.07l10.95,7.45c-1.11,3.25-2.56,6.44-4.35,9.57-1.78,3.13-3.84,6.02-6.21,8.65-3.93,4.2-8.18,7.22-12.78,9.07-4.58,1.84-9.2,2.32-13.86,1.44-4.68-.87-9.15-3.29-13.41-7.26-3.42-3.18-5.82-6.49-7.22-9.93-1.39-3.43-1.98-6.86-1.75-10.28.23-3.42,1.07-6.67,2.5-9.77,1.41-3.11,3.24-5.84,5.46-8.22ZM701.15,681.09c-1.58-1.84-3.35-2.63-5.31-2.38-1.98.26-3.77,1.24-5.36,2.93-1.39,1.52-2.18,3.38-2.35,5.58-.17,2.2.39,4.21,1.7,6.02l11.32-12.14Z"/>
    <path d="M757.3,662.4c-1.57,2.45-3.64,4.08-6.23,4.87-2.57.78-5.1.37-7.61-1.23-2.5-1.6-3.94-3.74-4.31-6.42-.39-2.69.2-5.27,1.77-7.72,1.62-2.52,3.72-4.15,6.31-4.9,2.58-.74,5.13-.31,7.63,1.28,2.5,1.6,3.94,3.73,4.31,6.37.36,2.65-.26,5.23-1.87,7.75Z"/>
    <path d="M756.16,594.52l-14.78-14.04-15.85-17.97,9.15-18.61,2.59,1.25,50.76,60.74-3.58,7.26-79.22-2.78-2.59-1.25,9.15-18.61,24.01,1.36,20.22,2.95.16-.28Z"/>
    <path d="M806.52,550.94c-.49,2.89-1.76,5.2-3.81,6.94-2.05,1.73-4.55,2.34-7.49,1.85-2.94-.48-5.11-1.88-6.51-4.19-1.4-2.33-1.86-4.93-1.37-7.82.49-2.94,1.78-5.26,3.87-6.96,2.07-1.7,4.58-2.31,7.52-1.83,2.94.49,5.09,1.88,6.46,4.17,1.38,2.29,1.83,4.91,1.35,7.85Z"/>
  </g>
  <g>
    <path d="M219.65,267.3l-18.44,22.92,9.03,7.27,16.98-21.1,14.4,11.61-16.98,21.1,10.31,8.3,19.09-23.73,15.05,12.12-32.38,40.22-63.11-50.83,31.73-39.41,14.32,11.53Z"/>
    <path d="M295.4,259.67l23.7-17.17,11.15,15.38-40.87,29.59-47.54-65.63,17.17-12.42,36.4,50.26Z"/>
    <path d="M359.42,186.24l4.66-30.27,21.1-7.65,1.06,2.93-9.82,52.32,10.96,30.16-19.91,7.21-10.96-30.16-41.22-33.77-1.06-2.93,21.32-7.76,23,20.21.87-.3Z"/>
    <path d="M447.7,195.62c.14,2.79,1.57,4.81,4.29,6.08,2.73,1.25,5.7,1.79,8.92,1.63,2.01-.09,3.94-.45,5.8-1.08,1.88-.63,3.4-1.55,4.58-2.77,1.17-1.21,1.72-2.66,1.65-4.37-.09-1.91-.65-3.37-1.68-4.37-1.02-1.01-2.3-1.71-3.85-2.09-1.56-.39-3.21-.61-4.96-.65-1.74-.03-3.33-.05-4.77-.05-3.73-.07-7.37-.46-10.93-1.17-3.55-.72-6.78-1.88-9.71-3.47-2.93-1.59-5.29-3.78-7.08-6.56-1.79-2.78-2.79-6.3-3.01-10.55-.27-5.84.96-10.79,3.69-14.86,2.73-4.08,6.43-7.22,11.12-9.41,4.7-2.18,9.82-3.42,15.38-3.69,3.94-.18,7.78.21,11.53,1.17,3.76.94,7.19,2.44,10.31,4.5,3.11,2.05,5.6,4.69,7.49,7.92,1.9,3.24,2.91,7.04,3.04,11.42l-19.77.95c-.2-2.77-1.43-4.71-3.69-5.83-2.24-1.14-4.79-1.63-7.65-1.49-1.54.07-3.17.35-4.88.81-1.72.47-3.14,1.25-4.26,2.33-1.11,1.08-1.6,2.67-1.49,4.75.12,2.71,1.3,4.41,3.53,5.07,2.24.67,5.3,1.1,9.17,1.27,4.34.2,8.45.6,12.34,1.19,3.91.58,7.39,1.67,10.47,3.25,3.09,1.59,5.57,3.87,7.46,6.83,1.88,2.95,2.94,6.9,3.17,11.85.2,4.23-.56,8.01-2.25,11.34-1.7,3.33-4.08,6.15-7.13,8.46-3.06,2.3-6.53,4.11-10.41,5.42-3.89,1.3-7.91,2.05-12.07,2.25-4.23.2-8.38-.14-12.45-1.03-4.05-.9-7.72-2.37-10.98-4.42-3.25-2.04-5.88-4.69-7.87-7.95-1.97-3.27-3.02-7.19-3.15-11.74l20.12-.95Z"/>
    <path d="M561.84,214.81l-3.74,16.73-40.79-9.09,3.74-16.73,10.06,2.22,10.17-45.62-9.17-2.03,3.74-16.73,39,8.71-3.74,16.73-9.17-2.06-10.17,45.62,10.06,2.25Z"/>
    <path d="M611.56,255.74c-5.03-2.71-9.24-6.2-12.64-10.44-3.4-4.25-5.49-8.94-6.27-14.05-.78-5.11.27-10.32,3.15-15.62l25.9-47.73,18.63,10.09-25.68,47.33c-1.57,2.92-1.65,5.64-.22,8.19,1.42,2.53,3.46,4.51,6.1,5.94,1.7.92,3.49,1.52,5.37,1.79,1.88.27,3.66.05,5.34-.65,1.7-.71,3.08-2.05,4.15-4.01l25.68-47.33,18.42,9.98-25.9,47.73c-2.87,5.3-6.66,9.03-11.34,11.2-4.69,2.17-9.72,2.99-15.11,2.47-5.37-.53-10.57-2.16-15.59-4.88Z"/>
    <path d="M771.65,286.38l4.99,5.61-60.75,54-14.08-15.84,27.96-24.84-24.95-.9-1.63-1.84,2.03-24.87-27.96,24.84-14.05-15.84,60.75-54,4.99,5.64-4.85,47.35,47.54.68Z"/>
  </g>
</svg>